    <svg xmlns="http://www.w3.org/2000/svg" id="XMLID_323_" width="20px" height="20px" viewBox="0 0 47.469 47.469">
      <g id="XMLID_1291_">
        <path id="XMLID_1351_"
          d="M46.541,0H9.086a.927.927,0,0,0-.927.927V5.006H5.006a.927.927,0,0,0-.927.927V10.94H.927A.927.927,0,0,0,0,11.867V42.462a5.012,5.012,0,0,0,5.006,5.006H42.462a5.012,5.012,0,0,0,5.006-5.006V.927A.927.927,0,0,0,46.541,0Zm-.927,42.462a3.156,3.156,0,0,1-3.152,3.152H8.892a4.982,4.982,0,0,0,1.121-3.152V29.946a.927.927,0,1,0-1.854,0V42.462a3.152,3.152,0,0,1-6.3,0V12.794H4.079V41.535a.927.927,0,1,0,1.854,0V6.861H8.159V21.6a.927.927,0,0,0,1.854,0V1.854h35.6Z"
          fill="#FFF" />
        <path id="XMLID_1376_"
          d="M136.927,74.529h28.555a.927.927,0,0,0,.927-.927V66.927a.927.927,0,0,0-.927-.927H136.927a.927.927,0,0,0-.927.927V73.6A.927.927,0,0,0,136.927,74.529Zm.927-6.675h26.7v4.821h-26.7Z"
          transform="translate(-123.391 -59.881)" fill="#FFF" />
        <path id="XMLID_1459_"
          d="M136.927,205.655H151.2a.927.927,0,0,0,.927-.927v-17.8A.927.927,0,0,0,151.2,186H136.927a.927.927,0,0,0-.927.927v17.8A.927.927,0,0,0,136.927,205.655Zm.927-17.8h12.423V203.8H137.854Z"
          transform="translate(-123.391 -168.756)" fill="#FFF" />
        <path id="XMLID_1460_" d="M348.755,186h-9.827a.927.927,0,0,0,0,1.854h9.827a.927.927,0,0,0,0-1.854Z"
          transform="translate(-306.663 -168.756)" fill="#FFF" />
        <path id="XMLID_1476_" d="M348.755,234h-9.827a.927.927,0,1,0,0,1.854h9.827a.927.927,0,1,0,0-1.854Z"
          transform="translate(-306.663 -212.305)" fill="#FFF" />
        <path id="XMLID_1533_" d="M348.755,282h-9.827a.927.927,0,0,0,0,1.854h9.827a.927.927,0,0,0,0-1.854Z"
          transform="translate(-306.663 -255.855)" fill="#FFF" />
        <path id="XMLID_1535_" d="M348.755,330h-9.827a.927.927,0,0,0,0,1.854h9.827a.927.927,0,0,0,0-1.854Z"
          transform="translate(-306.663 -299.405)" fill="#FFF" />
        <path id="XMLID_1545_" d="M348.755,378h-9.827a.927.927,0,0,0,0,1.854h9.827a.927.927,0,0,0,0-1.854Z"
          transform="translate(-306.663 -342.955)" fill="#FFF" />
        <path id="XMLID_1550_" d="M136.927,427.854h28.555a.927.927,0,0,0,0-1.854H136.927a.927.927,0,0,0,0,1.854Z"
          transform="translate(-123.391 -386.505)" fill="#FFF" />
        <path id="XMLID_1572_" d="M89.427,268a.928.928,0,1,0,.655.272A.934.934,0,0,0,89.427,268Z"
          transform="translate(-80.295 -243.153)" fill="#FFF" />
      </g>
    </svg>