<svg data-name="Group 309" xmlns="http://www.w3.org/2000/svg" viewBox="0 0 19.275 19.275" class="icon svg-icon" data-v-7c291bb8="" data-v-b8a86b7a=""><path data-name="Path 6725" d="M5.782 15.42a1.928 1.928 0 101.928 1.928 1.919 1.919 0 00-1.928-1.928z" fill="#3a3738" data-v-7c291bb8=""></path><path data-name="Path 6726" d="M6.843 10.6h7.18a1.934 1.934 0 001.687-.993l3.446-6.255a.932.932 0 00.12-.463.963.963 0 00-.964-.964H4.062L3.147 0H0v1.928h1.928l3.465 7.31L4.091 11.6a1.959 1.959 0 00-.236.93 1.927 1.927 0 001.928 1.928h11.565v-1.929H6.192a.239.239 0 01-.241-.241.229.229 0 01.029-.116z" fill="#3a3738" data-v-7c291bb8=""></path><path data-name="Path 6727" d="M15.422 15.42a1.928 1.928 0 101.928 1.928 1.919 1.919 0 00-1.928-1.928z" fill="#3a3738" data-v-7c291bb8=""></path></svg>